<?xml version="1.0" encoding="utf-8"?>
<!-- Generator: Adobe Illustrator 20.0.0, SVG Export Plug-In . SVG Version: 6.00 Build 0)  -->
<svg version="1.1" id="Layer_1" xmlns="http://www.w3.org/2000/svg" xmlns:xlink="http://www.w3.org/1999/xlink" x="0px" y="0px"
	 width="400px" height="400px" viewBox="0 0 400 400" style="enable-background:new 0 0 400 400;" xml:space="preserve">
<style type="text/css">
	.st0{fill:#0033A0;}
</style>
<g>
	<path class="st0" d="M377.2,22.8v354.4H22.8V22.8H377.2 M400,0H0v400h400V0L400,0z"/>
	<g>
		<g>
			<path class="st0" d="M165.5,304.1c0,9.3-5.4,16.1-15.6,18.1l16.4,22.2h-19.3L132.4,323h-0.9v21.5h-16.4V284H142
				C157.4,284,165.5,291.9,165.5,304.1z M131.5,309.5h10.4c4,0,7-1.7,7-5.4c0-3.7-3-5.4-7-5.4h-10.4V309.5z"/>
			<path class="st0" d="M172.8,344.4V284H220v14.6h-30.8v8h28.7v14.6h-28.7v8.7H220v14.6H172.8z"/>
			<path class="st0" d="M247.8,329.8h28.3v14.6H226v-12.9l28.3-33H226V284h50.1v12.9L247.8,329.8z"/>
			<path class="st0" d="M326.6,344.4l-4-11.5H300l-4,11.5h-17.1l22.9-60.4h19.3l22.9,60.4H326.6z M317.5,318.3l-6.2-17.9l-6.2,17.9
				H317.5z"/>
		</g>
		<g>
			<path class="st0" d="M99,344.7l-33.9-43.9l0,43.9h-9.8v-60.7h8.8L98.1,328v-43.9h9.8v60.7H99z"/>
		</g>
	</g>
</g>
</svg>
