<?xml version="1.0" encoding="utf-8"?>
<!-- Generator: Adobe Illustrator 20.0.0, SVG Export Plug-In . SVG Version: 6.00 Build 0)  -->
<svg version="1.1" id="Layer_1" xmlns="http://www.w3.org/2000/svg" xmlns:xlink="http://www.w3.org/1999/xlink" x="0px" y="0px"
	 viewBox="0 0 400 400" enable-background="new 0 0 400 400" xml:space="preserve">
<g>
	<path fill="#000069" d="M377.2,22.8v354.4H22.8V22.8H377.2 M400,0H0v400h400V0L400,0z"/>
	<g>
		<path fill="#000069" d="M116.1,323.3l-35.3-45.8l0,45.8H76v-53.9h4.2l35.3,45.8v-45.8h4.7v53.9H116.1z"/>
		<path fill="#000069" d="M170.6,287.4c0,8.3-4.8,14.3-13.9,16.2l14.7,19.8h-17.2l-13-19.1h-0.8v19.1h-14.6v-53.9h24
			C163.4,269.4,170.6,276.5,170.6,287.4z M140.3,292.1h9.2c3.6,0,6.3-1.5,6.3-4.8c0-3.3-2.7-4.8-6.3-4.8h-9.2V292.1z"/>
		<path fill="#000069" d="M175.2,323.3v-53.9h42.1v13h-27.5v7.1h25.6v13h-25.6v7.7h27.5v13H175.2z"/>
		<path fill="#000069" d="M240.2,310.3h25.2v13h-44.6v-11.5l25.2-29.4h-25.2v-13h44.6v11.5L240.2,310.3z"/>
		<path fill="#000069" d="M308.5,323.3l-3.6-10.3h-20.1l-3.5,10.3h-15.3l20.4-53.9h17.2l20.4,53.9H308.5z M300.3,300l-5.5-15.9
			l-5.5,15.9H300.3z"/>
	</g>
</g>
</svg>
