<?xml version="1.0" encoding="utf-8"?>
<!-- Generator: Adobe Illustrator 20.0.0, SVG Export Plug-In . SVG Version: 6.00 Build 0)  -->
<svg version="1.1" id="Layer_1" xmlns="http://www.w3.org/2000/svg" xmlns:xlink="http://www.w3.org/1999/xlink" x="0px" y="0px"
	 viewBox="0 0 50 50" style="enable-background:new 0 0 50 50;" xml:space="preserve">
<style type="text/css">
	.st0{fill:#0033A0;}
</style>
<path class="st0" d="M46.3,16H5.4c-1.7,0-3-1.3-3-3v0c0-1.7,1.3-3,3-3h40.9c1.7,0,3,1.3,3,3v0C49.2,14.7,47.9,16,46.3,16z"/>
<path class="st0" d="M46.3,28H14.7c-1.7,0-3-1.3-3-3v0c0-1.7,1.3-3,3-3h31.5c1.7,0,3,1.3,3,3v0C49.2,26.7,47.9,28,46.3,28z"/>
<path class="st0" d="M46.3,40H14.7c-1.7,0-3-1.3-3-3v0c0-1.7,1.3-3,3-3h31.5c1.7,0,3,1.3,3,3v0C49.2,38.7,47.9,40,46.3,40z"/>
</svg>
